<svg width="500" height="500" viewBox="0 0 500 500" fill="none" xmlns="http://www.w3.org/2000/svg">
<path d="M404.8 144.76C404.8 144.76 378 92.07 324.7 86.82C271.4 81.57 236.42 122.44 198.5 144.43C178.65 155.94 155.14 153.09 133.75 159.27C65.35 179 44.52 281.82 76.35 338C103.9 386.64 149.19 410.33 216.41 412.86C283.63 415.39 330.93 419.95 388.31 367.91C445.69 315.87 436.43 214.22 404.8 144.76Z" fill="#F9A826"/>
<path opacity="0.7" d="M404.8 144.76C404.8 144.76 378 92.07 324.7 86.82C271.4 81.57 236.42 122.44 198.5 144.43C178.65 155.94 155.14 153.09 133.75 159.27C65.35 179 44.52 281.82 76.35 338C103.9 386.64 149.19 410.33 216.41 412.86C283.63 415.39 330.93 419.95 388.31 367.91C445.69 315.87 436.43 214.22 404.8 144.76Z" fill="white"/>
<path d="M391.51 220.41L403.51 219L405.33 205.71L394.06 201.1C393.83 196.754 393.071 192.452 391.8 188.29L400.99 180.14L394.86 168.21L382.79 171C378.24 165.165 372.521 160.346 366 156.85L366.79 144.32L354 140.22L347.32 150.94C343.115 150.43 338.865 150.43 334.66 150.94L328.07 140.1L315.25 144.1L315.93 156.78C312.196 158.747 308.708 161.151 305.54 163.94L293.91 158.84L285.69 169.44L293.48 179.39C292.103 182.038 290.952 184.798 290.04 187.64C289.65 188.84 289.32 190.06 289.04 191.27L276.69 193.75L276.03 207.15L287.94 210.81C288.496 215.07 289.563 219.246 291.12 223.25L282.59 232.25L289.74 243.61L301.4 239.86C304.331 243.083 307.645 245.934 311.27 248.35L309.5 260.35L321.87 265.55L329.18 255.95C333.476 256.922 337.877 257.352 342.28 257.23L347.69 267.97L360.8 265.14L361.29 253.14C365.371 251.444 369.227 249.251 372.77 246.61L383.34 252.29L392.45 242.45L385.98 232.34C388.307 228.606 390.164 224.599 391.51 220.41ZM372.69 214.12C370.669 220.427 366.823 225.993 361.638 230.114C356.454 234.235 350.164 236.727 343.564 237.274C336.964 237.821 330.35 236.399 324.558 233.187C318.766 229.975 314.056 225.119 311.024 219.231C307.992 213.343 306.774 206.688 307.523 200.108C308.273 193.527 310.957 187.317 315.235 182.262C319.514 177.207 325.195 173.534 331.561 171.707C337.927 169.881 344.692 169.983 351 172C355.191 173.34 359.076 175.493 362.434 178.336C365.793 181.178 368.558 184.654 370.572 188.566C372.586 192.477 373.81 196.748 374.174 201.132C374.537 205.517 374.033 209.93 372.69 214.12Z" fill="#F9A826"/>
<path d="M137 221.45L141.51 220.92L142.19 215.92L137.96 214.19C137.871 212.555 137.585 210.937 137.11 209.37L140.56 206.31L138.26 201.83L133.72 202.83C132.005 200.64 129.853 198.831 127.4 197.52L127.69 192.81L122.9 191.27L120.38 195.27C118.802 195.08 117.208 195.08 115.63 195.27L113.15 191.2L108.34 192.69L108.59 197.46C107.19 198.202 105.881 199.105 104.69 200.15L100.32 198.23L97.23 202.23L100.16 205.97C99.6398 206.965 99.2049 208.002 98.86 209.07C98.72 209.52 98.6 209.98 98.48 210.44L93.84 211.37L93.6 216.37L98 217.81C98.207 219.413 98.61 220.985 99.2 222.49L96 225.87L98.68 230.13L103.07 228.73C104.171 229.941 105.417 231.013 106.78 231.92L106.11 236.44L110.76 238.44L113.5 234.83C115.113 235.196 116.766 235.357 118.42 235.31L120.42 239.31L125.34 238.24L125.53 233.74C127.063 233.105 128.511 232.282 129.84 231.29L133.84 233.42L137.27 229.72L134.83 225.93C135.733 224.531 136.462 223.026 137 221.45ZM129.93 219.09C129.17 221.462 127.723 223.554 125.774 225.104C123.824 226.653 121.459 227.59 118.977 227.794C116.495 227.999 114.008 227.464 111.831 226.255C109.653 225.046 107.883 223.219 106.744 221.005C105.606 218.79 105.149 216.287 105.433 213.813C105.716 211.339 106.728 209.004 108.338 207.105C109.949 205.205 112.086 203.826 114.481 203.142C116.875 202.458 119.419 202.499 121.79 203.26C124.959 204.291 127.591 206.536 129.109 209.502C130.627 212.469 130.908 215.917 129.89 219.09H129.93Z" fill="#F9A826"/>
<path opacity="0.5" d="M391.51 220.41L403.51 219L405.33 205.71L394.06 201.1C393.83 196.754 393.071 192.452 391.8 188.29L400.99 180.14L394.86 168.21L382.79 171C378.24 165.165 372.521 160.346 366 156.85L366.79 144.32L354 140.22L347.32 150.94C343.115 150.43 338.865 150.43 334.66 150.94L328.07 140.1L315.25 144.1L315.93 156.78C312.196 158.747 308.708 161.151 305.54 163.94L293.91 158.84L285.69 169.44L293.48 179.39C292.103 182.038 290.952 184.798 290.04 187.64C289.65 188.84 289.32 190.06 289.04 191.27L276.69 193.75L276.03 207.15L287.94 210.81C288.496 215.07 289.563 219.246 291.12 223.25L282.59 232.25L289.74 243.61L301.4 239.86C304.331 243.083 307.645 245.934 311.27 248.35L309.5 260.35L321.87 265.55L329.18 255.95C333.476 256.922 337.877 257.352 342.28 257.23L347.69 267.97L360.8 265.14L361.29 253.14C365.371 251.444 369.227 249.251 372.77 246.61L383.34 252.29L392.45 242.45L385.98 232.34C388.307 228.606 390.164 224.599 391.51 220.41ZM372.69 214.12C370.669 220.427 366.823 225.993 361.638 230.114C356.454 234.235 350.164 236.727 343.564 237.274C336.964 237.821 330.35 236.399 324.558 233.187C318.766 229.975 314.056 225.119 311.024 219.231C307.992 213.343 306.774 206.688 307.523 200.108C308.273 193.527 310.957 187.317 315.235 182.262C319.514 177.207 325.195 173.534 331.561 171.707C337.927 169.881 344.692 169.983 351 172C355.191 173.34 359.076 175.493 362.434 178.336C365.793 181.178 368.558 184.654 370.572 188.566C372.586 192.477 373.81 196.748 374.174 201.132C374.537 205.517 374.033 209.93 372.69 214.12Z" fill="white"/>
<path opacity="0.5" d="M137 221.45L141.51 220.92L142.19 215.92L137.96 214.19C137.871 212.555 137.585 210.937 137.11 209.37L140.56 206.31L138.26 201.83L133.72 202.83C132.005 200.64 129.853 198.831 127.4 197.52L127.69 192.81L122.9 191.27L120.38 195.27C118.802 195.08 117.208 195.08 115.63 195.27L113.15 191.2L108.34 192.69L108.59 197.46C107.19 198.202 105.881 199.105 104.69 200.15L100.32 198.23L97.23 202.23L100.16 205.97C99.6398 206.965 99.2049 208.002 98.86 209.07C98.72 209.52 98.6 209.98 98.48 210.44L93.84 211.37L93.6 216.37L98 217.81C98.207 219.413 98.61 220.985 99.2 222.49L96 225.87L98.68 230.13L103.07 228.73C104.171 229.941 105.417 231.013 106.78 231.92L106.11 236.44L110.76 238.44L113.5 234.83C115.113 235.196 116.766 235.357 118.42 235.31L120.42 239.31L125.34 238.24L125.53 233.74C127.063 233.105 128.511 232.282 129.84 231.29L133.84 233.42L137.27 229.72L134.83 225.93C135.733 224.531 136.462 223.026 137 221.45ZM129.93 219.09C129.17 221.462 127.723 223.554 125.774 225.104C123.824 226.653 121.459 227.59 118.977 227.794C116.495 227.999 114.008 227.464 111.831 226.255C109.653 225.046 107.883 223.219 106.744 221.005C105.606 218.79 105.149 216.287 105.433 213.813C105.716 211.339 106.728 209.004 108.338 207.105C109.949 205.205 112.086 203.826 114.481 203.142C116.875 202.458 119.419 202.499 121.79 203.26C124.959 204.291 127.591 206.536 129.109 209.502C130.627 212.469 130.908 215.917 129.89 219.09H129.93Z" fill="white"/>
<path d="M298.09 127.52L301.96 126.6L302.05 122.19L298.19 121.11C297.964 119.696 297.564 118.316 297 117L299.69 114L297.24 110.34L293.4 111.7C291.7 109.964 289.656 108.602 287.4 107.7L287.18 103.58L282.85 102.72L281 106.51C279.607 106.501 278.217 106.655 276.86 106.97L274.3 103.69L270.3 105.47L271.01 109.59C269.863 110.374 268.812 111.29 267.88 112.32L263.88 111.1L261.6 114.87L264.52 117.87C264.171 118.785 263.9 119.729 263.71 120.69C263.63 121.1 263.57 121.51 263.52 121.92L259.58 123.2L259.87 127.6L263.87 128.34C264.216 129.713 264.727 131.039 265.39 132.29L262.94 135.55L265.71 138.99L269.37 137.32C270.452 138.261 271.644 139.067 272.92 139.72L272.8 143.72L277.04 144.95L279.04 141.53C280.481 141.689 281.936 141.662 283.37 141.45L285.55 144.76L289.72 143.33L289.43 139.4C290.698 138.691 291.874 137.828 292.93 136.83L296.6 138.28L299.2 134.72L296.7 131.66C297.331 130.342 297.798 128.952 298.09 127.52ZM291.7 126.18C291.277 128.312 290.232 130.271 288.697 131.809C287.162 133.348 285.205 134.397 283.075 134.825C280.944 135.252 278.734 135.039 276.724 134.212C274.714 133.385 272.994 131.981 271.782 130.177C270.569 128.373 269.918 126.251 269.91 124.078C269.903 121.904 270.539 119.777 271.739 117.965C272.94 116.153 274.65 114.738 276.654 113.897C278.658 113.056 280.866 112.827 283 113.24C284.422 113.515 285.777 114.069 286.985 114.869C288.192 115.669 289.23 116.7 290.039 117.902C290.847 119.105 291.41 120.455 291.695 121.875C291.98 123.296 291.982 124.759 291.7 126.18Z" fill="#263238"/>
<path d="M144.74 185.73C144.74 185.73 135.63 206.53 137 207.79C138.37 209.05 148.9 229.51 150.62 229.58C152.34 229.65 151.74 224.26 151.74 224.26L161.93 214.63L144.74 185.73Z" fill="#263238"/>
<path d="M185.13 173.13C185.13 173.13 204.92 184.27 204.59 186.13C204.26 187.99 208.14 210.64 206.8 211.73C205.46 212.82 202.71 208.15 202.71 208.15L188.78 206.59L185.13 173.13Z" fill="#263238"/>
<path d="M396 325.25C385.36 294.91 352.1 340.78 335.18 351.47C318.26 362.16 321.18 304.47 294.53 323.33C267.88 342.19 266.53 395.18 241.39 393.65C230.63 392.99 224.66 358.55 217.25 338.18L181.65 195.18L162.58 203.55L209.32 344.55C211.61 356.62 224.96 388.81 224.27 395.6C223.35 404.6 201.69 403.53 180.27 396.6C144.27 385.03 127.89 322.97 99.27 315.22C85.64 311.53 77.84 319.95 72.27 329.84C73.5233 332.627 74.8833 335.323 76.35 337.93C103.9 386.57 149.19 410.26 216.41 412.79C283.63 415.32 330.93 419.88 388.31 367.84C390.117 366.2 391.857 364.517 393.53 362.79C397.28 351.07 400.05 336.87 396 325.25Z" fill="#F9A826"/>
<path opacity="0.5" d="M396 325.25C385.36 294.91 352.1 340.78 335.18 351.47C318.26 362.16 321.18 304.47 294.53 323.33C267.88 342.19 266.53 395.18 241.39 393.65C230.63 392.99 224.66 358.55 217.25 338.18L181.65 195.18L162.58 203.55L209.32 344.55C211.61 356.62 224.96 388.81 224.27 395.6C223.35 404.6 201.69 403.53 180.27 396.6C144.27 385.03 127.89 322.97 99.27 315.22C85.64 311.53 77.84 319.95 72.27 329.84C73.5233 332.627 74.8833 335.323 76.35 337.93C103.9 386.57 149.19 410.26 216.41 412.79C283.63 415.32 330.93 419.88 388.31 367.84C390.117 366.2 391.857 364.517 393.53 362.79C397.28 351.07 400.05 336.87 396 325.25Z" fill="white"/>
<path d="M189.77 204.07C189.77 204.07 183.77 141.07 178.93 123.6C174.09 106.13 147.77 81.5 138.3 85.68C128.83 89.86 124.8 123 127.17 140.21C129.54 157.42 156.26 214.72 164.65 220.21C173.04 225.7 189.07 227.33 189.77 204.07Z" fill="white"/>
<path d="M189.77 204.07C189.77 204.07 189.77 203.66 189.66 202.89C183.35 223.61 169.37 220.21 160.22 215.18C161.413 217.078 162.909 218.767 164.65 220.18C173 225.69 189.07 227.33 189.77 204.07Z" fill="#263238"/>
<path d="M138.3 85.68C129.46 89.59 125.37 118.68 126.78 136.51C130.07 139.263 133.893 141.306 138.01 142.51C154.11 147.21 171.2 138.26 178.49 122.19C172.65 104.81 147.52 81.61 138.3 85.68Z" fill="#263238"/>
<path d="M158.3 100.17C165.075 107.049 170.803 114.886 175.3 123.43" stroke="white" stroke-linecap="round" stroke-linejoin="round"/>
<path d="M149.49 92C149.49 92 151.21 93.36 153.85 95.82" stroke="white" stroke-linecap="round" stroke-linejoin="round"/>
<path d="M186.6 200.48L186.99 203.43" stroke="#263238" stroke-linecap="round" stroke-linejoin="round"/>
<path d="M185.41 191.47L186.29 198.14" stroke="#263238" stroke-linecap="round" stroke-linejoin="round"/>
<path d="M178.56 139.73L184.63 185.58" stroke="#263238" stroke-linecap="round" stroke-linejoin="round"/>
<path d="M177.25 129.88L177.8 134" stroke="#263238" stroke-linecap="round" stroke-linejoin="round"/>
<path d="M135.69 158.31L146.97 183.79" stroke="#263238" stroke-linecap="round" stroke-linejoin="round"/>
<path d="M148.14 186.9L150.45 192.08" stroke="#263238" stroke-linecap="round" stroke-linejoin="round"/>
<path d="M175.542 166.47C177.864 158.511 173.65 150.282 166.132 148.09C158.614 145.897 150.638 150.571 148.317 158.529C145.996 166.487 150.209 174.716 157.727 176.909C165.245 179.102 173.221 174.428 175.542 166.47Z" fill="#263238"/>
<path d="M171.08 166.48C170.487 168.15 169.418 169.61 168.005 170.679C166.591 171.748 164.896 172.379 163.128 172.495C161.359 172.612 159.596 172.207 158.055 171.333C156.514 170.458 155.263 169.151 154.457 167.573C153.65 165.995 153.324 164.215 153.517 162.454C153.711 160.692 154.416 159.026 155.546 157.661C156.676 156.296 158.181 155.292 159.876 154.773C161.57 154.254 163.379 154.242 165.08 154.74C167.43 155.505 169.381 157.17 170.505 159.371C171.63 161.571 171.836 164.127 171.08 166.48Z" fill="#F9A826"/>
<path d="M171.87 201.32L182.69 229.16C182.74 229.317 182.821 229.462 182.931 229.586C183.04 229.709 183.173 229.809 183.323 229.878C183.473 229.946 183.635 229.983 183.8 229.985C183.965 229.987 184.128 229.955 184.28 229.89C184.596 229.745 184.845 229.487 184.979 229.166C185.112 228.845 185.12 228.486 185 228.16L175.76 199.62C175.663 199.353 175.509 199.11 175.31 198.906C175.112 198.703 174.872 198.545 174.607 198.442C174.342 198.338 174.058 198.293 173.774 198.308C173.49 198.323 173.212 198.399 172.96 198.53C172.481 198.794 172.109 199.218 171.91 199.728C171.711 200.237 171.697 200.801 171.87 201.32Z" fill="#263238"/>
<path d="M346.83 128.44L348.69 131.9" stroke="#263238" stroke-linecap="round" stroke-linejoin="round"/>
<path d="M353.51 128.59L353.85 130.5" stroke="#263238" stroke-linecap="round" stroke-linejoin="round"/>
<path d="M360.12 127.24L359.79 130.32" stroke="#263238" stroke-linecap="round" stroke-linejoin="round"/>
<path d="M378.59 142.39L374.79 143.36" stroke="#263238" stroke-linecap="round" stroke-linejoin="round"/>
<path d="M373.96 137.57L372.33 138.62" stroke="#263238" stroke-linecap="round" stroke-linejoin="round"/>
<path d="M370.49 131.79L368.44 134.12" stroke="#263238" stroke-linecap="round" stroke-linejoin="round"/>
<path d="M364.07 133.79H363.98H363.9C354.82 130 345 133.9 341.28 142.39C340.161 144.918 339.68 147.682 339.88 150.44C339.88 151.84 339.8 155.26 339.35 159.52C339.071 162.29 338.539 165.028 337.76 167.7L337.68 167.85C337.607 168.005 337.565 168.172 337.558 168.343C337.55 168.514 337.577 168.685 337.637 168.845C337.696 169.006 337.788 169.152 337.905 169.277C338.022 169.401 338.163 169.501 338.32 169.57H338.4L345.4 172.63H345.48L347.36 173.45H347.45L354.45 176.51H354.53C354.686 176.579 354.854 176.615 355.024 176.617C355.195 176.62 355.364 176.588 355.521 176.523C355.679 176.459 355.822 176.363 355.942 176.243C356.062 176.122 356.157 175.978 356.22 175.82C356.22 175.76 356.27 175.71 356.29 175.66C357.727 173.276 359.381 171.03 361.23 168.95C364.07 165.74 366.53 163.37 367.55 162.42C369.814 160.617 371.58 158.265 372.68 155.588C373.781 152.911 374.18 149.998 373.839 147.124C373.499 144.249 372.43 141.51 370.735 139.164C369.039 136.818 366.772 134.945 364.15 133.72L364.07 133.79Z" fill="#F9A826"/>
<path d="M354.816 176.627L338.042 169.26L336.333 173.151L353.107 180.518L354.816 176.627Z" fill="#263238"/>
<path d="M351.13 185.01L352.7 181.45L335.92 174.08L334.4 177.54L351.13 185.01Z" fill="#263238"/>
<path d="M353.105 180.52L336.331 173.154L335.925 174.078L352.699 181.445L353.105 180.52Z" fill="white"/>
<path d="M334.4 177.54L336.55 182.52L345.96 186.62L351.13 185.01L334.4 177.54Z" fill="#263238"/>
<path d="M356.83 169.3C358.62 166.538 360.83 164.071 363.38 161.99C369.79 156.92 374.26 151.99 370.58 142.87" stroke="#263238" stroke-linecap="round" stroke-linejoin="round"/>
<path d="M353.84 174.74C353.84 174.74 354.22 173.81 354.99 172.38" stroke="#263238" stroke-linecap="round" stroke-linejoin="round"/>
<path d="M344 171.43C344 171.43 345.93 159.12 344.6 155.69C343.27 152.26 342.22 162.43 347.17 161.02C352.12 159.61 349.56 153.6 348.85 156.32C348.14 159.04 349.98 162.58 352.94 160.88C355.9 159.18 356.03 156.61 354.29 157.74C352.55 158.87 354.64 163.84 357.49 162.66C360.34 161.48 359.72 159.85 357.61 160.77C355.5 161.69 350.83 170.83 349.43 174.22" stroke="#263238" stroke-linecap="round" stroke-linejoin="round"/>
<path d="M418.39 254.19C417.417 256.455 415.991 258.497 414.2 260.19C411.05 263.3 409.74 270.33 418.3 274.19C426.86 278.05 423.44 292.75 413.18 290.97C402.92 289.19 397.1 272.97 387.44 277.03C377.78 281.09 380.44 296.16 373.27 293.2C366.1 290.24 363.1 283.2 357.45 285.93C351.8 288.66 349.27 301.93 370.72 309.65C392.17 317.37 387.35 285.23 394.1 286.36C400.85 287.49 401.36 297.23 412.1 300.11C422.84 302.99 433.53 287.36 432.03 278.56C430.53 269.76 418.75 269.76 416.81 265.38C414.87 261 421.58 255.96 421.58 255.96C421.58 255.96 421.21 252.83 418.39 254.19Z" fill="#F9A826"/>
<path d="M419.59 246.7L417 253.22C416.777 253.775 416.744 254.388 416.907 254.964C417.07 255.539 417.419 256.045 417.9 256.4C418.458 256.811 419.153 256.993 419.842 256.907C420.53 256.822 421.159 256.476 421.6 255.94L426.77 249.66L419.59 246.7Z" fill="#263238" stroke="#263238" stroke-linecap="round" stroke-linejoin="round"/>
<path d="M433.85 207.42L450.42 219.09C450.42 219.09 440.28 233.88 436.58 241C432.88 248.12 427.75 253.09 423.5 252.36C419.25 251.63 416.71 245.7 417.97 240.61C419.23 235.52 428.45 224.07 430.34 218.61C432.23 213.15 433.85 207.42 433.85 207.42Z" fill="#F9A826"/>
<path d="M433.85 207.42C433.85 207.42 432.24 213.08 430.34 218.55C429.453 220.742 428.347 222.839 427.04 224.81C430.997 228.668 435.339 232.11 440 235.08C444.45 227.82 450.44 219.08 450.44 219.08L433.85 207.42Z" fill="#263238"/>
<path d="M431 263.37C430.719 263.816 430.313 264.168 429.831 264.382C429.35 264.597 428.816 264.663 428.297 264.574C427.778 264.484 427.297 264.242 426.915 263.879C426.534 263.516 426.269 263.048 426.154 262.534C426.038 262.02 426.078 261.483 426.269 260.992C426.459 260.501 426.791 260.077 427.222 259.775C427.653 259.472 428.164 259.305 428.691 259.293C429.218 259.282 429.736 259.427 430.18 259.71C430.475 259.895 430.731 260.137 430.932 260.422C431.134 260.707 431.277 261.029 431.353 261.369C431.429 261.709 431.437 262.061 431.377 262.405C431.316 262.748 431.188 263.076 431 263.37Z" fill="#F9A826"/>
<path d="M408.08 277.91C407.834 278.297 407.478 278.601 407.059 278.786C406.64 278.971 406.175 279.027 405.723 278.948C405.272 278.869 404.854 278.658 404.522 278.342C404.191 278.026 403.96 277.618 403.86 277.171C403.76 276.724 403.794 276.257 403.959 275.829C404.123 275.401 404.411 275.032 404.786 274.768C405.16 274.503 405.604 274.356 406.063 274.344C406.521 274.332 406.972 274.456 407.36 274.7C407.88 275.031 408.248 275.555 408.383 276.156C408.518 276.758 408.409 277.389 408.08 277.91Z" fill="#F9A826"/>
<path d="M406.12 315.74C406.039 315.871 405.932 315.985 405.807 316.076C405.681 316.166 405.539 316.23 405.389 316.266C405.238 316.301 405.082 316.306 404.93 316.281C404.777 316.256 404.631 316.201 404.5 316.12C404.369 316.039 404.255 315.932 404.165 315.807C404.074 315.681 404.01 315.539 403.974 315.389C403.939 315.238 403.934 315.082 403.959 314.93C403.984 314.777 404.039 314.631 404.12 314.5C404.284 314.235 404.547 314.046 404.851 313.974C405.155 313.903 405.475 313.956 405.74 314.12C406.005 314.284 406.194 314.547 406.265 314.851C406.337 315.155 406.284 315.475 406.12 315.74Z" fill="#F9A826"/>
<path d="M364.78 301.48C367.48 303.183 370.486 304.345 373.63 304.9C382.63 306.41 383.75 301.34 385.63 294.17" stroke="#263238" stroke-linecap="round" stroke-linejoin="round"/>
<path d="M358.93 296.64C359.551 297.351 360.219 298.019 360.93 298.64" stroke="#263238" stroke-linecap="round" stroke-linejoin="round"/>
<path d="M410.69 296.9C410.69 296.9 420.23 301.25 426.13 289.9" stroke="#263238" stroke-linecap="round" stroke-linejoin="round"/>
<path d="M421.34 249.14C420.897 248.874 420.513 248.521 420.212 248.101C419.911 247.682 419.7 247.205 419.59 246.7" stroke="#263238" stroke-linecap="round" stroke-linejoin="round"/>
<path d="M436.38 236.9C436.38 236.9 430.49 248.23 426.75 249.66C425.905 249.994 424.997 250.138 424.09 250.08" stroke="#263238" stroke-linecap="round" stroke-linejoin="round"/>
<path d="M233.216 147.316L205.53 150.427L207.976 172.2L235.662 169.089L233.216 147.316Z" fill="#F9A826"/>
<path opacity="0.5" d="M233.216 147.316L205.53 150.427L207.976 172.2L235.662 169.089L233.216 147.316Z" fill="white"/>
<path d="M232.015 148.359L206.863 151.185L209.064 170.772L234.215 167.946L232.015 148.359Z" fill="#F9A826"/>
<path d="M233 155.12C231.63 153.66 230.48 153.35 229.15 154.92C227.15 157.31 226.07 162.65 224.65 162.43C223.23 162.21 222.98 160.07 221.55 158.7C220.12 157.33 218.32 160.59 214.8 164.43C213.137 166.249 211.087 167.671 208.8 168.59L209.06 170.94L234.47 168.08L233 155.12Z" fill="#263238"/>
<path d="M216.39 155.13C216.463 155.765 216.346 156.407 216.054 156.976C215.762 157.544 215.308 158.014 214.749 158.324C214.19 158.634 213.552 158.771 212.915 158.719C212.278 158.666 211.671 158.425 211.17 158.027C210.67 157.63 210.299 157.092 210.105 156.483C209.91 155.874 209.9 155.222 210.077 154.607C210.254 153.993 210.609 153.445 211.097 153.032C211.585 152.62 212.185 152.361 212.82 152.29C213.67 152.194 214.523 152.44 215.192 152.972C215.861 153.504 216.292 154.28 216.39 155.13Z" fill="#263238"/>
<path d="M159.724 259.707L113.385 244.31L101.28 280.741L147.619 296.138L159.724 259.707Z" fill="#F9A826"/>
<path opacity="0.5" d="M159.724 259.707L113.385 244.31L101.28 280.741L147.619 296.138L159.724 259.707Z" fill="white"/>
<path d="M156.035 261.434L113.893 247.239L102.84 280.052L144.982 294.247L156.035 261.434Z" fill="#263238"/>
<path d="M153.54 271.93C152.44 268.6 150.83 267.26 147.54 268.78C142.54 271.1 136.95 278.78 134.85 277.42C132.75 276.06 133.93 272.42 132.66 269.21C131.39 266 126.14 269.85 117.72 273.37C113.717 275.037 109.391 275.786 105.06 275.56L103.76 279.48L146.3 293.62L153.54 271.93Z" fill="#F9A826"/>
<path d="M127.18 259.78C126.827 260.842 126.166 261.775 125.283 262.462C124.399 263.149 123.332 263.558 122.215 263.638C121.099 263.718 119.984 263.466 119.011 262.913C118.039 262.359 117.252 261.53 116.75 260.53C116.248 259.529 116.055 258.402 116.193 257.292C116.332 256.181 116.796 255.137 117.528 254.29C118.26 253.444 119.227 252.833 120.306 252.536C121.385 252.239 122.528 252.268 123.59 252.62C124.296 252.854 124.949 253.225 125.512 253.712C126.075 254.198 126.536 254.791 126.869 255.456C127.203 256.121 127.402 256.845 127.455 257.587C127.508 258.329 127.415 259.074 127.18 259.78Z" fill="#F9A826"/>
<path d="M380.24 346.44C380.334 346.153 380.359 345.848 380.314 345.549C380.268 345.251 380.153 344.967 379.978 344.721C379.803 344.475 379.573 344.273 379.306 344.132C379.038 343.992 378.742 343.915 378.44 343.91L357.21 343.43C356.795 343.43 356.39 343.558 356.051 343.798C355.713 344.039 355.457 344.378 355.32 344.77L348.19 367C347.623 366.528 346.972 366.168 346.27 365.94C345.161 365.576 343.97 365.543 342.843 365.846C341.715 366.148 340.701 366.773 339.923 367.644C339.145 368.514 338.639 369.593 338.465 370.747C338.291 371.901 338.458 373.081 338.945 374.142C339.431 375.203 340.217 376.099 341.205 376.72C342.193 377.342 343.341 377.661 344.509 377.64C345.676 377.618 346.811 377.257 347.776 376.599C348.741 375.942 349.493 375.018 349.94 373.94H350.02L355.46 357L372.65 357.39L369.5 367.19C368.496 366.396 367.265 365.944 365.986 365.899C364.707 365.855 363.447 366.221 362.391 366.943C361.334 367.666 360.537 368.707 360.114 369.915C359.692 371.123 359.666 372.434 360.042 373.658C360.418 374.881 361.175 375.952 362.203 376.715C363.231 377.477 364.476 377.891 365.756 377.896C367.035 377.9 368.283 377.496 369.317 376.741C370.35 375.986 371.115 374.921 371.5 373.7C371.5 373.7 371.5 373.64 371.5 373.61L380.24 346.44ZM373.88 353.57L356.69 353.18L358.57 347.33L375.76 347.73L373.88 353.57Z" fill="#263238"/>
<path d="M325.55 360.46C325.59 360.333 325.601 360.198 325.58 360.066C325.559 359.934 325.508 359.809 325.43 359.7C325.351 359.592 325.249 359.504 325.131 359.442C325.014 359.379 324.883 359.345 324.75 359.34L315.37 359.13C315.185 359.125 315.004 359.18 314.852 359.286C314.701 359.392 314.588 359.544 314.53 359.72L311.38 369.54C311.129 369.332 310.84 369.172 310.53 369.07C310.041 368.911 309.516 368.897 309.019 369.031C308.522 369.165 308.075 369.441 307.732 369.824C307.389 370.208 307.166 370.684 307.089 371.192C307.011 371.701 307.084 372.221 307.298 372.69C307.511 373.158 307.857 373.554 308.292 373.829C308.726 374.104 309.232 374.247 309.747 374.239C310.261 374.232 310.762 374.075 311.189 373.787C311.616 373.5 311.95 373.094 312.15 372.62L314.56 365.13L322.16 365.3L320.77 369.64C320.525 369.435 320.244 369.279 319.94 369.18C319.441 369.02 318.906 369.011 318.403 369.154C317.899 369.298 317.449 369.588 317.11 369.987C316.77 370.386 316.557 370.877 316.497 371.397C316.436 371.918 316.532 372.444 316.77 372.911C317.009 373.377 317.381 373.762 317.838 374.017C318.296 374.272 318.818 374.386 319.341 374.344C319.863 374.303 320.361 374.107 320.772 373.782C321.183 373.458 321.488 373.018 321.65 372.52L325.55 360.46ZM322.74 363.61L315.14 363.44L315.97 360.85L323.57 361.03L322.74 363.61Z" fill="#263238"/>
<path d="M141.68 313.75C141.719 313.628 141.73 313.499 141.711 313.372C141.692 313.245 141.643 313.125 141.57 313.02C141.493 312.916 141.394 312.831 141.279 312.771C141.165 312.71 141.039 312.676 140.91 312.67L131.8 312.46C131.62 312.456 131.444 312.51 131.298 312.615C131.152 312.72 131.044 312.869 130.99 313.04L127.93 322.56C127.686 322.362 127.408 322.209 127.11 322.11C126.635 321.955 126.126 321.941 125.644 322.071C125.162 322.201 124.728 322.468 124.395 322.84C124.062 323.213 123.845 323.674 123.77 324.167C123.696 324.661 123.766 325.166 123.973 325.62C124.181 326.074 124.516 326.458 124.938 326.725C125.36 326.992 125.85 327.13 126.349 327.122C126.849 327.115 127.335 326.962 127.749 326.683C128.163 326.404 128.486 326.01 128.68 325.55L131.01 318.29L138.38 318.45L137.03 322.66C136.793 322.459 136.517 322.31 136.22 322.22C135.736 322.064 135.217 322.055 134.728 322.195C134.239 322.334 133.802 322.616 133.473 323.003C133.144 323.391 132.937 323.868 132.879 324.373C132.821 324.878 132.914 325.389 133.147 325.841C133.379 326.293 133.74 326.666 134.185 326.913C134.629 327.16 135.137 327.269 135.644 327.228C136.151 327.186 136.634 326.994 137.032 326.678C137.43 326.362 137.725 325.934 137.88 325.45L141.68 313.75ZM139 316.81L131.63 316.65L132.43 314.14L139.81 314.31L139 316.81Z" fill="#263238"/>
<path d="M205.07 197.6C252.49 208.04 344.66 236.02 368.19 237.6C425.72 241.6 429.19 140.36 354 117.73C295.4 100.09 236.88 145.21 189.94 162.25" stroke="#263238" stroke-width="0.5" stroke-linecap="round" stroke-linejoin="round" stroke-dasharray="3 3"/>
<path d="M70 314.05C91.88 297.53 141.79 271.28 236.37 273.62C341.78 276.22 380.21 292.82 426.92 293.46" stroke="#263238" stroke-width="0.5" stroke-linecap="round" stroke-linejoin="round" stroke-dasharray="5 3"/>
<path d="M290.75 409.8C290.75 409.8 263.33 416.68 189.63 394.13C156.81 384.08 123.06 366.64 104.94 336.27C76.45 288.52 90.52 223.27 137.83 199.63" stroke="#263238" stroke-width="0.5" stroke-linecap="round" stroke-linejoin="round" stroke-dasharray="5 3"/>
<path d="M274.49 399.73L267.34 431.44L352.16 414.97L274.49 399.73Z" fill="#263238" stroke="#F9A826" stroke-linecap="round" stroke-linejoin="round"/>
<path d="M274.59 408.87L267.34 431.44L297.98 424.88L274.59 408.87Z" fill="#263238" stroke="#F9A826" stroke-linecap="round" stroke-linejoin="round"/>
<path d="M272.93 374.34L274.49 399.73L352.16 414.97L272.93 374.34Z" fill="#263238" stroke="#F9A826" stroke-linecap="round" stroke-linejoin="round"/>
<path d="M352.16 414.97L274.04 442.69L274.59 408.87L352.16 414.97Z" fill="#263238" stroke="#F9A826" stroke-linecap="round" stroke-linejoin="round"/>
<path d="M297.65 215.8C297.65 215.8 293.27 207.05 295.31 202.09C297.35 197.13 305.23 189.25 309.31 192.46C313.39 195.67 311.93 202.96 315.43 205.01C318.93 207.06 330.31 212.3 331.19 222.22C332.07 232.14 324.48 239.72 326.52 243.22C328.56 246.72 343.73 245.85 349.86 255.77C355.99 265.69 353.94 279.69 349.57 285.24C345.2 290.79 318.64 299.24 318.64 305.66C318.64 312.08 326.81 319.08 314.56 325.49C302.31 331.9 283.93 328.7 282.18 313.49C280.43 298.28 298.8 284.03 297.64 273.82C296.48 263.61 285.97 256.02 283.05 246.39C280.13 236.76 295.89 233.85 298.22 230.39C300.55 226.93 297.65 215.8 297.65 215.8Z" fill="#263238" stroke="#263238" stroke-linecap="round" stroke-linejoin="round"/>
<path d="M347.3 273.77C346.57 276.05 345.54 277.44 345.13 277.58" stroke="white" stroke-linecap="round" stroke-linejoin="round"/>
<path d="M311.94 225.1C311.94 225.1 313.2 231.74 318.26 234.58C323.32 237.42 314.47 244.07 319.84 251.02C325.21 257.97 342.29 251.02 346.4 260.5C347.447 262.874 348.027 265.427 348.11 268.02" stroke="white" stroke-linecap="round" stroke-linejoin="round"/>
<path d="M325.1 232.25C326.036 232.838 327.044 233.302 328.1 233.63" stroke="white" stroke-linecap="round" stroke-linejoin="round"/>
<path d="M313.52 204.86C313.52 204.86 313.84 220.36 318.58 226.36C319.546 227.594 320.616 228.741 321.78 229.79" stroke="white" stroke-linecap="round" stroke-linejoin="round"/>
<path d="M229.26 208.4C229.26 208.4 230.9 201.73 230.9 199.79C230.9 197.85 230.41 197.36 229.9 198.45C229.42 199.759 229.016 201.095 228.69 202.45L229.26 208.4Z" fill="white" stroke="#263238" stroke-linecap="round" stroke-linejoin="round"/>
<path d="M170.77 385.48C170.77 385.48 165.28 394.54 160.62 399.48C155.96 404.42 154.62 409.63 159.52 411C164.42 412.37 171.87 410.45 175.71 406.61C179.55 402.77 182.85 397.01 186.71 394.81C190.57 392.61 193.02 392.34 193.02 386.31C193.02 380.28 190.28 378.9 190.28 378.9C190.28 378.9 179.28 385.21 170.77 385.48Z" fill="#263238" stroke="#263238" stroke-linecap="round" stroke-linejoin="round"/>
<path d="M184.22 394.54C179.01 398.93 174.61 407.16 166.11 408.26C161.11 408.9 158.11 407.66 156.48 406.52C156.15 408.64 157.03 410.31 159.48 411C164.42 412.38 171.83 410.45 175.67 406.61C179.51 402.77 182.81 397.01 186.67 394.81C190.03 392.89 192.34 392.44 192.87 388.31C189.849 390.189 186.959 392.27 184.22 394.54Z" fill="white" stroke="#263238" stroke-linecap="round" stroke-linejoin="round"/>
<path d="M254.2 299.86C254.2 299.86 225.66 292.18 212.2 289.71C198.74 287.24 186.13 285.59 181.74 290.81C177.35 296.03 178.45 336.63 176.53 346.81C174.61 356.99 172.41 376.45 171.86 379.46C171.31 382.47 168.86 385.23 170.49 386.33C172.12 387.43 182.01 388.25 185.58 386.33C189.15 384.41 191.89 383.33 191.89 380.01C191.89 376.69 192.44 347.36 194.89 338.3C197.34 329.24 199.28 313.88 199.28 313.88C199.28 313.88 217.12 317.99 225.35 320.46C233.58 322.93 245.35 331.71 256.64 331.99C267.93 332.27 266.52 315.25 264.32 310.31C262.12 305.37 258.31 300.69 254.2 299.86Z" fill="#F9A826"/>
<path opacity="0.39" d="M265.28 313.42C263.963 310.865 262.392 308.45 260.59 306.21C258.51 304.12 255.53 301.33 253.87 299.77L250.23 298.77L238.93 299.71C238.93 299.71 194.1 289.07 192.93 294.01C191.76 298.95 194.45 304.27 194.45 304.27C194.45 304.27 184.95 294.39 186.09 298.19C187.23 301.99 194.45 310.35 194.45 310.35C194.45 310.35 186.85 301.61 186.85 306.93C186.85 312.25 189.13 337.7 184.95 357.84C182.2 371.06 176.84 381.01 174.95 387.25C178.57 387.59 183.29 387.47 185.53 386.25C189.1 384.32 191.84 383.25 191.84 379.93C191.84 376.61 192.39 347.28 194.84 338.22C197.29 329.16 199.23 313.8 199.23 313.8C199.23 313.8 217.07 317.91 225.3 320.38C233.53 322.85 245.3 331.63 256.59 331.91C266.14 332.2 266.66 320.18 265.28 313.42Z" fill="black"/>
<path d="M199.31 313.86C199.31 313.86 200.52 301.59 192.96 294.05" stroke="#263238" stroke-linecap="round" stroke-linejoin="round"/>
<path d="M198.37 295.28C198.37 295.28 201.25 298.08 200.28 305.97" stroke="#263238" stroke-linecap="round" stroke-linejoin="round"/>
<path d="M254.2 299.86C254.2 299.86 225.66 292.18 212.2 289.71C198.74 287.24 186.13 285.59 181.74 290.81C177.35 296.03 178.45 336.63 176.53 346.81C174.61 356.99 172.41 376.45 171.86 379.46C171.31 382.47 168.86 385.23 170.49 386.33C172.12 387.43 182.01 388.25 185.58 386.33C189.15 384.41 191.89 383.33 191.89 380.01C191.89 376.69 192.44 347.36 194.89 338.3C197.34 329.24 199.28 313.88 199.28 313.88C199.28 313.88 217.12 317.99 225.35 320.46C233.58 322.93 245.35 331.71 256.64 331.99C267.93 332.27 266.52 315.25 264.32 310.31C262.12 305.37 258.31 300.69 254.2 299.86Z" stroke="#263238" stroke-linecap="round" stroke-linejoin="round"/>
<path d="M295.31 246.14C295.31 246.14 292.69 246.73 285.1 245.27C277.51 243.81 277.81 247.02 267.89 242.93C257.97 238.84 235.8 222.22 232.3 219.59L228.8 217C228.8 217 229.26 211.47 229.26 208.43C229.26 205.39 229.09 202.51 229.09 202.51C229.09 202.51 229.94 195.59 229.26 194.4C228.58 193.21 227.4 194.74 227.4 196.09C227.043 198.573 226.419 201.01 225.54 203.36C225.54 203.36 224.36 196.26 224.02 194.91C223.68 193.56 222.84 193.05 222.02 193.39C221.2 193.73 222.19 197.45 222.19 198.97C222.19 200.49 222.02 204.88 222.02 204.88C222.02 204.88 219.02 197.45 218.13 195.93C217.24 194.41 216.27 195.59 216.44 196.93C216.61 198.27 219.14 205.71 219.14 205.71C219.14 205.71 217.62 213.65 217.62 214.16C217.62 214.67 214.41 213.65 212.89 212.3C211.37 210.95 210.89 212.3 211.89 213.99C212.89 215.68 215.61 217.37 218.65 218.72C221.69 220.07 225.07 221.42 225.07 221.42C225.07 221.42 242.64 240.34 249.07 246.26C255.5 252.18 262.59 255.88 266.31 257.91C270.03 259.94 278.13 264.16 278.13 264.16C278.13 264.16 274.08 267.16 274.08 272.1C274.08 277.04 275.08 281.39 272.72 284.6C270.36 287.81 262.42 294.23 262.42 294.23C262.42 294.23 251.61 283.23 244.85 279.23C238.09 275.23 231 273.65 225.76 281.59C220.52 289.53 220.19 323.65 219.68 334.8C219.17 345.95 216.98 353.22 215.8 354.4C214.716 355.431 214.011 356.798 213.8 358.28C213.8 359.28 213.63 361.66 213.63 361.66C213.63 361.66 215.15 370.28 219.71 373.66C224.27 377.04 226.81 381.43 228.33 378.56C229.85 375.69 233.73 370.79 234.07 366.56C234.274 362.686 234.698 358.826 235.34 355C235.85 353 235.68 337.26 238.55 329.32C241.42 321.38 242.94 316.65 242.94 316.65C242.94 316.65 245.65 332.36 257.3 335.57C268.95 338.78 279.77 332.57 286.02 323.24C292.27 313.91 300.38 296.55 305.78 289.62C311.18 282.69 319.47 271.21 319.47 271.21L331.47 287.26C330.536 289.301 329.463 291.275 328.26 293.17C326.26 296.38 319.48 302.63 319.48 302.63C319.48 302.63 322.48 304.99 324.88 305.33C327.28 305.67 338.57 300.26 344.14 295.53C349.71 290.8 350.73 288.78 348.53 285.53C346.33 282.28 337.53 270.66 332.32 263.23C327.11 255.8 326.74 249.88 321.5 248.02C316.26 246.16 309.85 247.69 307.82 247.69C305.775 247.555 303.743 247.271 301.74 246.84L295.31 246.14Z" fill="#F9A826"/>
<path opacity="0.39" d="M275 319.13C275 319.13 266.26 300.13 251.44 289.49C236.62 278.85 236.62 281.49 237.38 283.79C238.14 286.09 238.9 289.11 238.9 289.11C238.9 289.11 233.2 283.03 233.2 287.21C233.2 291.39 238.52 303.93 234.72 319.51C230.92 335.09 226.72 349.9 227.88 356.74C229.04 363.58 230.54 369.28 226.36 364.74C222.18 360.2 219.9 364.74 220.28 366.64C220.44 367.41 224.28 371.92 229.02 377.15C230.8 374.24 233.67 370.15 233.96 366.53C234.202 362.664 234.663 358.814 235.34 355C235.85 353 235.68 337.26 238.55 329.32C241.42 321.38 242.94 316.65 242.94 316.65C242.94 316.65 245.65 332.36 257.3 335.57C268.95 338.78 279.77 332.57 286.02 323.24C288.71 319.24 291.74 313.74 294.75 308.24L280.75 314.55L275 319.13Z" fill="black"/>
<path d="M243.1 287.68C243.1 287.68 248.96 297.68 243.68 314.36" stroke="#263238" stroke-linecap="round" stroke-linejoin="round"/>
<path d="M246.45 286.51C246.45 286.51 248.36 293.37 246.45 298.72" stroke="#263238" stroke-linecap="round" stroke-linejoin="round"/>
<path d="M295.31 246.14C295.31 246.14 292.69 246.73 285.1 245.27C277.51 243.81 277.81 247.02 267.89 242.93C257.97 238.84 235.8 222.22 232.3 219.59L228.8 217C228.8 217 229.26 211.47 229.26 208.43C229.26 205.39 229.09 202.51 229.09 202.51C229.09 202.51 229.94 195.59 229.26 194.4C228.58 193.21 227.4 194.74 227.4 196.09C227.043 198.573 226.419 201.01 225.54 203.36C225.54 203.36 224.36 196.26 224.02 194.91C223.68 193.56 222.84 193.05 222.02 193.39C221.2 193.73 222.19 197.45 222.19 198.97C222.19 200.49 222.02 204.88 222.02 204.88C222.02 204.88 219.02 197.45 218.13 195.93C217.24 194.41 216.27 195.59 216.44 196.93C216.61 198.27 219.14 205.71 219.14 205.71C219.14 205.71 217.62 213.65 217.62 214.16C217.62 214.67 214.41 213.65 212.89 212.3C211.37 210.95 210.89 212.3 211.89 213.99C212.89 215.68 215.61 217.37 218.65 218.72C221.69 220.07 225.07 221.42 225.07 221.42C225.07 221.42 242.64 240.34 249.07 246.26C255.5 252.18 262.59 255.88 266.31 257.91C270.03 259.94 278.13 264.16 278.13 264.16C278.13 264.16 274.08 267.16 274.08 272.1C274.08 277.04 275.08 281.39 272.72 284.6C270.36 287.81 262.42 294.23 262.42 294.23C262.42 294.23 251.61 283.23 244.85 279.23C238.09 275.23 231 273.65 225.76 281.59C220.52 289.53 220.19 323.65 219.68 334.8C219.17 345.95 216.98 353.22 215.8 354.4C214.716 355.431 214.011 356.798 213.8 358.28C213.8 359.28 213.63 361.66 213.63 361.66C213.63 361.66 215.15 370.28 219.71 373.66C224.27 377.04 226.81 381.43 228.33 378.56C229.85 375.69 233.73 370.79 234.07 366.56C234.274 362.686 234.698 358.826 235.34 355C235.85 353 235.68 337.26 238.55 329.32C241.42 321.38 242.94 316.65 242.94 316.65C242.94 316.65 245.65 332.36 257.3 335.57C268.95 338.78 279.77 332.57 286.02 323.24C292.27 313.91 300.38 296.55 305.78 289.62C311.18 282.69 319.47 271.21 319.47 271.21L331.47 287.26C330.536 289.301 329.463 291.275 328.26 293.17C326.26 296.38 319.48 302.63 319.48 302.63C319.48 302.63 322.48 304.99 324.88 305.33C327.28 305.67 338.57 300.26 344.14 295.53C349.71 290.8 350.73 288.78 348.53 285.53C346.33 282.28 337.53 270.66 332.32 263.23C327.11 255.8 326.74 249.88 321.5 248.02C316.26 246.16 309.85 247.69 307.82 247.69C305.775 247.555 303.743 247.271 301.74 246.84L295.31 246.14Z" stroke="#263238" stroke-linecap="round" stroke-linejoin="round"/>
<path d="M332.31 263.3C327.07 255.86 326.73 249.95 321.49 248.09C316.25 246.23 309.84 247.76 307.81 247.76C305.765 247.625 303.733 247.341 301.73 246.91L295.31 246.14C295.31 246.14 292.69 246.73 285.1 245.27C277.51 243.81 277.81 247.02 267.89 242.93C257.97 238.84 235.8 222.22 232.3 219.59L228.8 217C228.8 217 229.26 211.47 229.26 208.43C229.26 205.39 229.09 202.51 229.09 202.51C229.09 202.51 229.94 195.59 229.26 194.4C228.58 193.21 227.4 194.74 227.4 196.09C227.043 198.573 226.419 201.01 225.54 203.36C225.54 203.36 224.36 196.26 224.02 194.91C223.68 193.56 222.84 193.05 222.02 193.39C221.2 193.73 222.19 197.45 222.19 198.97C222.19 200.49 222.02 204.88 222.02 204.88C222.02 204.88 219.02 197.45 218.13 195.93C217.24 194.41 216.27 195.59 216.44 196.93C216.61 198.27 219.14 205.71 219.14 205.71C219.14 205.71 217.62 213.65 217.62 214.16C217.62 214.67 214.41 213.65 212.89 212.3C211.37 210.95 210.89 212.3 211.89 213.99C212.89 215.68 215.61 217.37 218.65 218.72C221.69 220.07 225.07 221.42 225.07 221.42C225.07 221.42 242.64 240.34 249.07 246.26C255.5 252.18 262.59 255.88 266.31 257.91C270.03 259.94 278.13 264.16 278.13 264.16C278.13 264.16 274.08 267.16 274.08 272.1V272.74L309.93 284.3C314.64 278.02 319.52 271.3 319.52 271.3L331.52 287.35C330.586 289.391 329.513 291.365 328.31 293.26C326.31 296.47 319.53 302.72 319.53 302.72C319.53 302.72 322.53 305.08 324.93 305.42C327.33 305.76 338.62 300.35 344.19 295.62C349.76 290.89 350.78 288.87 348.58 285.62C346.38 282.37 337.54 270.73 332.31 263.3Z" fill="white"/>
<path d="M332.31 263.3C327.07 255.86 326.73 249.95 321.49 248.09C316.25 246.23 309.84 247.76 307.81 247.76C306.214 247.682 304.626 247.485 303.06 247.17C303.06 247.17 303.06 247.25 303.06 247.3C303.06 247.35 306.39 249.79 314.43 252.57C322.47 255.35 333.56 275.31 337.72 279.74C341.88 284.17 343.27 286.68 342.16 288.06C341.05 289.44 338.83 290.84 334.67 295.27C331.95 298.18 328.41 301.56 326.9 305.02C333.114 302.827 338.928 299.631 344.11 295.56C349.69 290.83 350.7 288.81 348.5 285.56C346.3 282.31 337.54 270.73 332.31 263.3Z" fill="#F9A826"/>
<path d="M264.53 243.14C260.111 241.77 255.977 239.608 252.33 236.76C245.68 231.76 235.97 224.83 238.19 229.83C240.41 234.83 255.66 247.3 261.76 250.35C267.86 253.4 271.76 251.73 279.51 251.18C287.26 250.63 285.61 246.74 280.62 246.74C275.63 246.74 268.42 244.8 264.53 243.14Z" fill="#F9A826"/>
<path opacity="0.5" d="M264.53 243.14C260.111 241.77 255.977 239.608 252.33 236.76C245.68 231.76 235.97 224.83 238.19 229.83C240.41 234.83 255.66 247.3 261.76 250.35C267.86 253.4 271.76 251.73 279.51 251.18C287.26 250.63 285.61 246.74 280.62 246.74C275.63 246.74 268.42 244.8 264.53 243.14Z" fill="white"/>
<path opacity="0.5" d="M332.31 263.3C327.07 255.86 326.73 249.95 321.49 248.09C316.25 246.23 309.84 247.76 307.81 247.76C306.214 247.682 304.626 247.485 303.06 247.17C303.06 247.17 303.06 247.25 303.06 247.3C303.06 247.35 306.39 249.79 314.43 252.57C322.47 255.35 333.56 275.31 337.72 279.74C341.88 284.17 343.27 286.68 342.16 288.06C341.05 289.44 338.83 290.84 334.67 295.27C331.95 298.18 328.41 301.56 326.9 305.02C333.114 302.827 338.928 299.631 344.11 295.56C349.69 290.83 350.7 288.81 348.5 285.56C346.3 282.31 337.54 270.73 332.31 263.3Z" fill="white"/>
<path d="M332.31 263.3C327.07 255.86 326.73 249.95 321.49 248.09C316.25 246.23 309.84 247.76 307.81 247.76C305.765 247.625 303.733 247.341 301.73 246.91L295.31 246.14C295.31 246.14 292.69 246.73 285.1 245.27C277.51 243.81 277.81 247.02 267.89 242.93C257.97 238.84 235.8 222.22 232.3 219.59L228.8 217C228.8 217 229.26 211.47 229.26 208.43C229.26 205.39 229.09 202.51 229.09 202.51C229.09 202.51 229.94 195.59 229.26 194.4C228.58 193.21 227.4 194.74 227.4 196.09C227.043 198.573 226.419 201.01 225.54 203.36C225.54 203.36 224.36 196.26 224.02 194.91C223.68 193.56 222.84 193.05 222.02 193.39C221.2 193.73 222.19 197.45 222.19 198.97C222.19 200.49 222.02 204.88 222.02 204.88C222.02 204.88 219.02 197.45 218.13 195.93C217.24 194.41 216.27 195.59 216.44 196.93C216.61 198.27 219.14 205.71 219.14 205.71C219.14 205.71 217.62 213.65 217.62 214.16C217.62 214.67 214.41 213.65 212.89 212.3C211.37 210.95 210.89 212.3 211.89 213.99C212.89 215.68 215.61 217.37 218.65 218.72C221.69 220.07 225.07 221.42 225.07 221.42C225.07 221.42 242.64 240.34 249.07 246.26C255.5 252.18 262.59 255.88 266.31 257.91C270.03 259.94 278.13 264.16 278.13 264.16C278.13 264.16 274.08 267.16 274.08 272.1V272.74L309.93 284.3C314.64 278.02 319.52 271.3 319.52 271.3L331.52 287.35C330.586 289.391 329.513 291.365 328.31 293.26C326.31 296.47 319.53 302.72 319.53 302.72C319.53 302.72 322.53 305.08 324.93 305.42C327.33 305.76 338.62 300.35 344.19 295.62C349.76 290.89 350.78 288.87 348.58 285.62C346.38 282.37 337.54 270.73 332.31 263.3Z" stroke="#263238" stroke-linecap="round" stroke-linejoin="round"/>
<path d="M332.31 263.3C327.07 255.86 326.73 249.95 321.49 248.09C316.25 246.23 309.84 247.76 307.81 247.76C305.765 247.625 303.733 247.341 301.73 246.91L295.31 246.14C295.31 246.14 292.69 246.73 285.1 245.27C277.51 243.81 277.81 247.02 267.89 242.93C267.29 242.68 266.64 242.39 265.95 242.05C263.27 244.05 260.34 247.57 258.65 253.52C261.65 255.44 264.4 256.88 266.26 257.89C269.97 259.89 278.08 264.14 278.08 264.14C278.08 264.14 274.03 267.14 274.03 272.08C274.03 277.02 275.03 281.37 272.67 284.58C270.86 287.04 265.79 291.38 263.51 293.27C267.51 296.96 279.51 308.94 284.51 325.27C285.02 324.62 285.51 323.95 285.98 323.27C292.23 313.98 300.34 296.58 305.74 289.65C311.14 282.72 319.43 271.24 319.43 271.24L323.89 277.24C327.06 273.47 331.08 270.05 336.01 268.55C334.71 266.67 333.42 264.88 332.31 263.3Z" fill="white" stroke="#263238" stroke-linecap="round" stroke-linejoin="round"/>
<path opacity="0.14" d="M308.61 273.21C307.878 273.693 307.173 274.218 306.5 274.78C304.816 276.294 302.834 277.438 300.681 278.139C298.528 278.84 296.252 279.082 294 278.85C282.22 278.09 276.14 268.97 275.76 272.01C275.38 275.05 275.76 283.41 282.6 286.07C289.44 288.73 298.18 285.31 295.52 288.35C292.86 291.39 280.01 298.35 283.05 302.53C286.09 306.71 294.28 305.64 304.42 287.65C305.91 285.01 313.06 277.79 313.11 274.42C313.19 270.89 310.64 271.89 308.61 273.21Z" fill="black"/>
<path opacity="0.14" d="M306.81 251.2C308.45 251.95 310.52 252.8 313.06 253.68C317.13 255.08 321.96 260.86 326.29 266.82C327.688 265.787 329.197 264.915 330.79 264.22C325.68 256.87 325.3 251.05 320.11 249.22C316.16 247.82 311.54 248.34 308.64 248.68L306.81 251.2Z" fill="black"/>
<path d="M333.16 264.5C330.668 265.163 328.336 266.321 326.301 267.905C324.267 269.489 322.573 271.467 321.32 273.72L323.93 277.21C327.1 273.44 331.12 270.02 336.05 268.52L333.16 264.5Z" fill="#263238" stroke="#263238" stroke-linecap="round" stroke-linejoin="round"/>
<path d="M301.73 246.91L295.31 246.14C293.675 246.343 292.019 246.319 290.39 246.07C289.52 249.87 288.05 256.32 287.28 260.18C286.14 265.9 292.28 264.37 298.35 260.18C302.27 257.48 305.57 251.78 307.72 247.75C305.706 247.61 303.705 247.33 301.73 246.91Z" fill="#263238" stroke="#263238" stroke-linecap="round" stroke-linejoin="round"/>
<path d="M261.6 255.3C262.9 252.11 265.5 247.04 269.92 243.72C269.29 243.49 268.62 243.23 267.92 242.93C267.22 242.63 266.67 242.39 265.98 242.05C263.3 244.05 260.37 247.57 258.68 253.52C259.68 254.17 260.67 254.76 261.6 255.3Z" fill="#263238" stroke="#263238" stroke-linecap="round" stroke-linejoin="round"/>
<path d="M306.69 209.67C306.69 209.67 299.4 211.72 297.36 213.47C295.32 215.22 292.36 220.76 288.9 221.34C285.44 221.92 285.39 223.97 285.39 225.43C285.368 226.246 285.572 227.053 285.98 227.76C285.98 227.76 285.69 234.47 285.69 237.97C285.69 241.47 286.56 242.35 288.31 242.35H292.4C292.4 242.35 291.52 254.6 290.65 257.52C289.78 260.44 295.02 257.23 296.48 255.77L304.65 247.6C304.65 247.6 302.9 239.14 305.52 233.31C308.14 227.48 303.52 225.43 302.9 219.01C302.666 217.258 302.892 215.475 303.556 213.837C304.221 212.2 305.301 210.763 306.69 209.67Z" fill="white"/>
<path d="M304.65 247.6C304.65 247.6 302.9 239.14 305.52 233.31C308.14 227.48 303.52 225.43 302.9 219.01C302.88 218.64 302.88 218.27 302.9 217.9C301.173 220.179 300.261 222.971 300.31 225.83C300.69 231.17 299.16 237.28 295.73 238.83C293.28 239.91 287.94 240.61 286.3 241.34C286.511 241.687 286.817 241.966 287.183 242.144C287.548 242.321 287.957 242.389 288.36 242.34H292.45C292.45 242.34 292.33 243.99 292.13 246.23C294.57 248.31 297.27 250.83 299.41 252.88L304.65 247.6Z" fill="#F9A826"/>
<path opacity="0.5" d="M304.65 247.6C304.65 247.6 302.9 239.14 305.52 233.31C308.14 227.48 303.52 225.43 302.9 219.01C302.88 218.64 302.88 218.27 302.9 217.9C301.173 220.179 300.261 222.971 300.31 225.83C300.69 231.17 299.16 237.28 295.73 238.83C293.28 239.91 287.94 240.61 286.3 241.34C286.511 241.687 286.817 241.966 287.183 242.144C287.548 242.321 287.957 242.389 288.36 242.34H292.45C292.45 242.34 292.33 243.99 292.13 246.23C294.57 248.31 297.27 250.83 299.41 252.88L304.65 247.6Z" fill="white"/>
<path d="M306.69 209.67C306.69 209.67 299.4 211.72 297.36 213.47C295.32 215.22 292.36 220.76 288.9 221.34C285.44 221.92 285.39 223.97 285.39 225.43C285.368 226.246 285.572 227.053 285.98 227.76C285.98 227.76 285.69 234.47 285.69 237.97C285.69 241.47 286.56 242.35 288.31 242.35H292.4C292.4 242.35 291.52 254.6 290.65 257.52C289.78 260.44 295.02 257.23 296.48 255.77L304.65 247.6C304.65 247.6 302.9 239.14 305.52 233.31C308.14 227.48 303.52 225.43 302.9 219.01C302.666 217.258 302.892 215.475 303.556 213.837C304.221 212.2 305.301 210.763 306.69 209.67V209.67Z" stroke="#263238" stroke-linecap="round" stroke-linejoin="round"/>
<path d="M296.05 221.78C295.44 222.78 294.6 223.34 294.17 223.07C293.74 222.8 293.87 221.79 294.47 220.81C295.07 219.83 295.92 219.25 296.36 219.52C296.8 219.79 296.65 220.8 296.05 221.78Z" fill="#263238"/>
<path d="M296.42 217.12C296.42 217.12 300.13 215.5 299.42 220.12" stroke="#263238" stroke-linecap="round" stroke-linejoin="round"/>
<path d="M292.94 229.22C289.47 230.38 288.08 229.22 288.08 229.22" stroke="#263238" stroke-linecap="round" stroke-linejoin="round"/>
<path d="M289.34 229.63V232.53C289.34 232.53 290.79 233.86 292.24 229.39C291.301 229.676 290.313 229.757 289.34 229.63Z" stroke="#263238" stroke-linecap="round" stroke-linejoin="round"/>
<path d="M304.36 230.68C304.36 230.68 312.82 228.35 311.65 232.14C310.48 235.93 303.48 238.56 302.65 235.64" fill="white"/>
<path d="M304.36 230.68C304.36 230.68 312.82 228.35 311.65 232.14C310.48 235.93 303.48 238.56 302.65 235.64" stroke="#263238" stroke-linecap="round" stroke-linejoin="round"/>
<path d="M262.37 294.21C262.37 294.21 274.76 309.67 276.23 322.86" stroke="#263238" stroke-linecap="round" stroke-linejoin="round"/>
<path d="M278.08 264.14C278.08 264.14 280.62 259.24 280.62 255.72" stroke="#263238" stroke-linecap="round" stroke-linejoin="round"/>
<path d="M319.47 271.24L313.17 263.64" stroke="#263238" stroke-linecap="round" stroke-linejoin="round"/>
<path d="M331.46 287.29C332.756 286.282 334.262 285.58 335.867 285.233C337.472 284.887 339.134 284.906 340.73 285.29" stroke="#263238" stroke-linecap="round" stroke-linejoin="round"/>
<path d="M322.25 296.74C321.01 294.524 319.535 292.449 317.85 290.55C315.73 288.43 310.03 288.76 309.38 290.23C308.73 291.7 312.64 291.37 315.08 293.81C317.52 296.25 317.2 298.37 317.2 298.37C315.02 299.21 312.679 299.552 310.35 299.37C307.26 298.88 303.18 298.07 302.86 299.21C302.54 300.35 303.67 301.65 306.28 302.3C308.89 302.95 311.98 302.79 312.96 302.95C313.94 303.11 316.38 305.72 318.34 305.72C320.3 305.72 322.74 305.24 323.39 305.72C324.04 306.2 325.83 308.49 327.79 308.49C329.75 308.49 331.54 306.49 331.7 304.26C331.86 302.03 330.56 299.86 327.79 298.72C325.02 297.58 322.25 296.74 322.25 296.74Z" fill="white" stroke="#263238" stroke-linecap="round" stroke-linejoin="round"/>
<path d="M326.9 296.91C326.9 296.91 320.4 291.35 318.81 291.19C317.22 291.03 312.52 293.98 313.6 295.19C314.68 296.4 316.33 294.62 317.78 294.83C319.23 295.04 323.09 298.38 323.78 298.49" fill="white"/>
<path d="M326.9 296.91C326.9 296.91 320.4 291.35 318.81 291.19C317.22 291.03 312.52 293.98 313.6 295.19C314.68 296.4 316.33 294.62 317.78 294.83C319.23 295.04 323.09 298.38 323.78 298.49" stroke="#263238" stroke-linecap="round" stroke-linejoin="round"/>
<path d="M327.14 299.51L325.14 296.25C325.14 296.25 323.02 299.84 320.58 299.35C318.14 298.86 323.35 293.48 324.49 293.16C325.63 292.84 327.1 292.16 328.4 294.62C329.334 296.602 330.045 298.681 330.52 300.82" fill="white"/>
<path d="M327.14 299.51L325.14 296.25C325.14 296.25 323.02 299.84 320.58 299.35C318.14 298.86 323.35 293.48 324.49 293.16C325.63 292.84 327.1 292.16 328.4 294.62C329.334 296.602 330.045 298.681 330.52 300.82" stroke="#263238" stroke-linecap="round" stroke-linejoin="round"/>
<path d="M331.54 302.45C331.54 302.45 330.72 297.23 329.74 296.58C328.76 295.93 325.67 297.07 324.37 298.58C323.07 300.09 323.88 300.37 325.51 300.37C326.397 300.413 327.268 300.12 327.95 299.55L329.09 302" fill="white"/>
<path d="M331.54 302.45C331.54 302.45 330.72 297.23 329.74 296.58C328.76 295.93 325.67 297.07 324.37 298.58C323.07 300.09 323.88 300.37 325.51 300.37C326.397 300.413 327.268 300.12 327.95 299.55L329.09 302" stroke="#263238" stroke-linecap="round" stroke-linejoin="round"/>
<path d="M229 377.73C227.064 373.143 224.547 368.825 221.51 364.88C216.84 359 209 356.71 204 353.5C199 350.29 191.75 345.92 188.54 349.71C185.33 353.5 188.25 358.71 193.54 364.59C198.83 370.47 208.12 375.09 209 376.26C209.88 377.43 218.16 387.18 221.37 387.47C224.58 387.76 227.83 383.56 229 377.73Z" fill="#263238" stroke="#263238" stroke-linecap="round" stroke-linejoin="round"/>
<path d="M226.58 384C224.91 378.07 218.84 373.05 214.68 369.88C209.68 366.11 206.45 360.82 197.39 353.96C193.45 350.96 190.7 349.81 188.86 349.45C188.746 349.542 188.639 349.642 188.54 349.75C185.33 353.54 188.25 358.75 193.54 364.63C198.83 370.51 208.12 375.13 209 376.3C209.88 377.47 218.16 387.22 221.37 387.51C223.2 387.64 225.09 386.27 226.58 384Z" fill="white" stroke="#263238" stroke-linecap="round" stroke-linejoin="round"/>
<path d="M212.22 371.82C206.47 367.03 193.7 352.65 190.82 351.38C188.42 350.31 187.47 352.91 187.22 353.8C187.46 356.95 189.94 360.63 193.5 364.59C198.75 370.42 208.08 375.09 208.96 376.26C209.84 377.43 218.12 387.18 221.33 387.47C221.716 387.571 222.125 387.525 222.479 387.34C222.832 387.155 223.104 386.845 223.24 386.47C224.84 384.11 218 376.61 212.22 371.82Z" fill="white" stroke="#263238" stroke-linecap="round" stroke-linejoin="round"/>
</svg>
